<svg xmlns="http://www.w3.org/2000/svg" xmlns:xlink="http://www.w3.org/1999/xlink" width="500" zoomAndPan="magnify" viewBox="0 0 375 374.999991" height="500" preserveAspectRatio="xMidYMid meet" version="1.0"><metadata><ContainsAiGeneratedContent>Yes</ContainsAiGeneratedContent></metadata><path fill="#ffffff" d="M 115.226562 166.523438 L 111.511719 166.523438 L 111.511719 190.300781 L 115.226562 190.300781 L 115.226562 184.175781 L 117.457031 181.941406 L 122.84375 190.300781 L 127.300781 190.300781 L 120.242188 179.34375 L 126.746094 173.023438 L 122.101562 173.023438 L 115.226562 180.085938 Z M 129.347656 166.523438 L 129.347656 170.050781 L 133.0625 170.050781 L 133.0625 166.523438 Z M 129.347656 173.023438 L 129.347656 190.300781 L 133.0625 190.300781 L 133.0625 173.023438 Z M 152.386719 178.414062 C 152.386719 174.507812 150.34375 172.652344 146.253906 172.652344 C 144.023438 172.652344 142.167969 173.582031 140.867188 175.628906 L 140.867188 173.023438 L 137.335938 173.023438 L 137.335938 190.304688 L 141.050781 190.304688 L 141.050781 180.085938 C 141.050781 178.785156 141.421875 177.855469 142.167969 176.925781 C 142.910156 175.996094 144.023438 175.628906 145.140625 175.628906 C 147.367188 175.628906 148.484375 176.925781 148.484375 179.527344 L 148.484375 190.300781 L 152.386719 190.300781 Z M 170.222656 175.808594 C 168.546875 173.582031 166.503906 172.652344 163.902344 172.652344 C 161.300781 172.652344 159.257812 173.582031 157.773438 175.253906 C 156.285156 177.109375 155.542969 179.152344 155.542969 181.753906 C 155.542969 184.351562 156.289062 186.585938 157.773438 188.253906 C 159.257812 189.925781 161.113281 190.671875 163.902344 190.671875 C 165.761719 190.671875 167.621094 190.296875 168.921875 189.183594 C 170.40625 188.253906 171.332031 186.769531 171.707031 184.914062 L 168.175781 184.914062 C 167.433594 186.769531 166.132812 187.699219 163.902344 187.699219 C 162.417969 187.699219 161.117188 187.324219 160.375 186.210938 C 159.628906 185.28125 159.257812 184.171875 159.257812 182.683594 L 172.078125 182.683594 C 172.261719 180.085938 171.707031 177.667969 170.222656 175.808594 Z M 166.875 176.925781 C 167.621094 177.855469 167.992188 178.96875 168.175781 180.273438 L 159.257812 180.273438 C 159.257812 178.785156 159.816406 177.855469 160.558594 176.925781 C 161.488281 175.996094 162.605469 175.628906 163.902344 175.628906 C 165.019531 175.628906 166.132812 175.996094 166.875 176.925781 Z M 179.882812 168.007812 L 175.980469 168.007812 L 175.980469 173.023438 L 173.195312 173.023438 L 173.195312 175.996094 L 175.980469 175.996094 L 175.980469 186.027344 C 175.980469 187.703125 176.351562 188.820312 176.90625 189.375 C 177.652344 190.117188 178.765625 190.488281 180.8125 190.488281 L 183.226562 190.304688 L 183.226562 187.332031 L 181.554688 187.515625 C 180.8125 187.515625 180.441406 187.332031 180.066406 186.773438 L 179.882812 185.101562 L 179.882812 175.996094 L 183.226562 175.996094 L 183.226562 173.023438 L 179.882812 173.023438 Z M 186.011719 166.523438 L 186.011719 170.050781 L 189.914062 170.050781 L 189.914062 166.523438 Z M 186.011719 173.023438 L 186.011719 190.300781 L 189.914062 190.300781 L 189.914062 173.023438 Z M 206.820312 174.140625 C 205.519531 173.023438 203.847656 172.652344 201.621094 172.652344 C 199.019531 172.652344 196.789062 173.582031 195.300781 175.253906 C 193.816406 176.925781 193.257812 179.15625 193.257812 181.941406 C 193.257812 184.542969 194 186.585938 195.300781 188.257812 C 196.789062 189.929688 198.828125 190.675781 201.621094 190.675781 C 206.078125 190.675781 208.679688 188.445312 209.417969 183.800781 L 205.703125 183.800781 C 205.332031 186.398438 203.84375 187.703125 201.621094 187.703125 C 199.949219 187.703125 198.828125 187.144531 197.898438 185.84375 C 197.34375 184.914062 196.972656 183.425781 196.972656 181.941406 C 196.972656 177.667969 198.460938 175.628906 201.621094 175.628906 C 204.03125 175.628906 205.332031 176.738281 205.703125 178.785156 L 209.417969 178.785156 C 209.238281 176.738281 208.492188 175.253906 206.820312 174.140625 Z M 224.839844 178.226562 C 224.839844 176.367188 224.28125 174.878906 222.984375 173.953125 C 221.867188 173.023438 220.382812 172.652344 218.527344 172.652344 C 216.855469 172.652344 215.554688 173.023438 214.253906 173.769531 C 212.953125 174.507812 212.207031 175.808594 212.207031 177.484375 C 212.207031 179.710938 213.695312 181.199219 216.855469 182.128906 L 219.640625 182.683594 C 222.054688 183.242188 223.359375 184.355469 223.359375 185.84375 C 223.359375 186.773438 222.800781 187.703125 221.871094 188.257812 L 218.710938 189 C 215.554688 189 213.695312 187.703125 213.695312 184.730469 L 211.652344 184.730469 C 211.839844 188.816406 214.253906 190.859375 218.527344 190.859375 C 220.386719 190.859375 222.054688 190.488281 223.171875 189.5625 C 224.84375 188.632812 225.585938 187.328125 225.585938 185.660156 C 225.585938 182.871094 223.914062 181.382812 220.574219 180.828125 L 217.78125 180.273438 C 215.554688 179.527344 214.257812 178.601562 214.257812 177.300781 C 214.257812 175.441406 215.554688 174.328125 218.339844 174.328125 C 221.125 174.328125 222.800781 175.628906 222.800781 178.226562 Z M 243.976562 181.757812 C 243.976562 179.15625 243.234375 176.925781 241.746094 175.253906 C 240.261719 173.582031 238.21875 172.65625 235.804688 172.65625 C 233.203125 172.65625 231.34375 173.582031 229.859375 175.253906 C 228.371094 176.925781 227.628906 179.15625 227.628906 181.757812 C 227.628906 184.355469 228.371094 186.402344 229.859375 188.074219 C 231.34375 189.929688 233.203125 190.859375 235.804688 190.859375 C 238.21875 190.859375 240.261719 189.929688 241.746094 188.074219 C 243.234375 186.398438 243.976562 184.175781 243.976562 181.757812 Z M 240.261719 176.738281 C 241.378906 178.042969 241.746094 179.710938 241.746094 181.753906 C 241.746094 183.613281 241.378906 185.285156 240.261719 186.773438 C 239.148438 188.257812 237.664062 189 235.804688 189 C 233.945312 189 232.457031 188.257812 231.34375 186.773438 C 230.234375 185.285156 229.859375 183.613281 229.859375 181.753906 C 229.859375 179.710938 230.234375 178.039062 231.34375 176.738281 C 232.457031 175.066406 233.945312 174.324219 235.804688 174.324219 C 237.664062 174.324219 239.148438 175.066406 240.261719 176.738281 Z M 249.179688 166.523438 L 247.132812 166.523438 L 247.132812 190.300781 L 249.179688 190.300781 Z M 267.203125 190.300781 L 267.203125 173.210938 L 264.972656 173.210938 L 264.972656 182.316406 C 264.972656 184.175781 264.597656 185.660156 263.859375 186.960938 C 262.929688 188.261719 261.625 189 259.773438 189 C 256.984375 189 255.3125 187.515625 255.3125 184.355469 L 255.3125 173.210938 L 253.269531 173.210938 L 253.269531 184.355469 C 253.269531 188.632812 255.128906 190.859375 259.214844 190.859375 C 262 190.859375 264.046875 189.558594 265.160156 187.140625 L 265.160156 190.300781 Z M 274.449219 168.007812 L 272.214844 168.007812 L 272.214844 173.210938 L 269.429688 173.210938 L 269.429688 174.878906 L 272.214844 174.878906 L 272.214844 186.585938 C 272.214844 188.070312 272.589844 189.1875 273.144531 189.746094 C 273.703125 190.300781 274.632812 190.488281 275.933594 190.488281 L 277.789062 190.488281 L 277.789062 188.632812 L 276.121094 188.632812 C 275.003906 188.632812 274.449219 187.886719 274.449219 186.585938 L 274.449219 174.882812 L 277.792969 174.882812 L 277.792969 173.210938 L 274.449219 173.210938 Z M 280.949219 166.523438 L 280.949219 169.867188 L 282.992188 169.867188 L 282.992188 166.523438 Z M 280.949219 173.210938 L 280.949219 190.300781 L 282.992188 190.300781 L 282.992188 173.210938 Z M 302.503906 181.757812 C 302.503906 179.15625 301.757812 176.925781 300.457031 175.253906 C 298.972656 173.582031 296.929688 172.65625 294.328125 172.65625 C 291.726562 172.65625 289.871094 173.582031 288.382812 175.253906 C 286.898438 176.925781 286.148438 179.15625 286.148438 181.757812 C 286.148438 184.175781 286.898438 186.402344 288.382812 188.074219 C 289.871094 189.929688 291.726562 190.859375 294.328125 190.859375 C 296.925781 190.859375 298.972656 189.929688 300.457031 188.074219 C 301.757812 186.398438 302.503906 184.355469 302.503906 181.757812 Z M 294.328125 174.324219 C 296.183594 174.324219 297.667969 175.066406 298.789062 176.738281 C 299.898438 178.042969 300.457031 179.710938 300.457031 181.753906 C 300.457031 183.613281 299.902344 185.285156 298.789062 186.773438 C 297.667969 188.257812 296.183594 189 294.328125 189 C 292.46875 189 290.980469 188.257812 289.871094 186.773438 C 288.753906 185.285156 288.382812 183.613281 288.382812 181.753906 C 288.382812 179.710938 288.753906 178.039062 289.871094 176.738281 C 290.980469 175.066406 292.46875 174.324219 294.328125 174.324219 Z M 319.59375 179.15625 C 319.59375 174.878906 317.363281 172.652344 313.089844 172.652344 C 311.976562 172.652344 310.863281 172.839844 309.933594 173.582031 C 308.824219 174.132812 308.082031 175 307.703125 176.183594 L 307.703125 173.210938 L 305.660156 173.210938 L 305.660156 190.300781 L 307.703125 190.300781 L 307.703125 180.269531 C 307.703125 178.601562 308.257812 177.109375 309.1875 176.183594 C 310.117188 174.878906 311.417969 174.324219 313.089844 174.324219 C 315.875 174.324219 317.550781 176.183594 317.550781 179.527344 L 317.550781 190.300781 L 319.589844 190.300781 L 319.589844 179.15625 Z M 335.941406 178.226562 C 335.757812 176.367188 335.199219 174.878906 334.085938 173.953125 C 332.785156 173.023438 331.296875 172.652344 329.628906 172.652344 C 327.769531 172.652344 326.46875 173.023438 325.351562 173.769531 C 323.867188 174.507812 323.125 175.808594 323.125 177.484375 C 323.125 179.710938 324.792969 181.199219 327.953125 182.128906 L 330.554688 182.683594 C 333.152344 183.242188 334.453125 184.355469 334.453125 185.84375 C 334.453125 186.773438 333.898438 187.703125 332.785156 188.257812 C 331.855469 188.816406 330.925781 189 329.808594 189 C 326.464844 189 324.792969 187.703125 324.605469 184.730469 L 322.5625 184.730469 C 322.9375 188.816406 325.164062 190.859375 329.625 190.859375 C 331.484375 190.859375 332.96875 190.488281 334.269531 189.5625 C 335.753906 188.632812 336.503906 187.328125 336.503906 185.660156 C 336.503906 182.871094 334.828125 181.382812 331.667969 180.828125 L 328.878906 180.273438 C 326.46875 179.527344 325.164062 178.601562 325.164062 177.300781 C 325.164062 175.441406 326.652344 174.328125 329.253906 174.328125 C 332.226562 174.328125 333.714844 175.628906 333.898438 178.226562 Z M 39.984375 139.027344 C 39.054688 139.027344 38.496094 139.582031 38.496094 140.511719 C 38.496094 141.628906 39.054688 142 39.984375 142 C 41.097656 142 41.472656 141.628906 41.472656 140.511719 C 41.46875 139.582031 41.097656 139.027344 39.984375 139.027344 Z M 39.984375 146.085938 C 39.054688 146.085938 38.496094 146.457031 38.496094 147.570312 C 38.496094 148.5 39.054688 149.058594 39.984375 149.058594 C 41.097656 149.058594 41.472656 148.503906 41.472656 147.570312 C 41.46875 146.457031 41.097656 146.085938 39.984375 146.085938 Z M 39.984375 152.960938 C 39.054688 152.960938 38.496094 153.515625 38.496094 154.445312 C 38.496094 155.558594 39.054688 155.933594 39.984375 155.933594 C 41.097656 155.933594 41.472656 155.558594 41.472656 154.445312 C 41.46875 153.515625 41.097656 152.960938 39.984375 152.960938 Z M 39.984375 160.019531 C 39.054688 160.019531 38.496094 160.390625 38.496094 161.507812 C 38.496094 162.433594 39.054688 162.992188 39.984375 162.992188 C 41.097656 162.992188 41.472656 162.433594 41.472656 161.507812 C 41.46875 160.390625 41.097656 160.019531 39.984375 160.019531 Z M 39.984375 169.867188 C 41.097656 169.867188 41.472656 169.308594 41.472656 168.382812 C 41.472656 167.453125 41.097656 166.894531 39.984375 166.894531 C 39.054688 166.894531 38.496094 167.453125 38.496094 168.382812 C 38.496094 169.308594 39.054688 169.867188 39.984375 169.867188 Z M 39.984375 173.953125 C 39.054688 173.953125 38.496094 174.324219 38.496094 175.441406 C 38.496094 176.367188 39.054688 176.738281 39.984375 176.738281 C 41.097656 176.738281 41.472656 176.367188 41.472656 175.441406 C 41.46875 174.324219 41.097656 173.953125 39.984375 173.953125 Z M 39.984375 180.828125 C 39.054688 180.828125 38.496094 181.382812 38.496094 182.316406 C 38.496094 183.246094 39.054688 183.800781 39.984375 183.800781 C 41.097656 183.800781 41.472656 183.246094 41.472656 182.316406 C 41.46875 181.382812 41.097656 180.828125 39.984375 180.828125 Z M 39.984375 187.886719 C 39.054688 187.886719 38.496094 188.257812 38.496094 189.1875 C 38.496094 190.300781 39.054688 190.675781 39.984375 190.675781 C 41.097656 190.675781 41.472656 190.300781 41.472656 189.1875 C 41.46875 188.257812 41.097656 187.886719 39.984375 187.886719 Z M 39.984375 194.761719 C 39.054688 194.761719 38.496094 195.320312 38.496094 196.25 C 38.496094 197.179688 39.054688 197.734375 39.984375 197.734375 C 41.097656 197.734375 41.472656 197.179688 41.472656 196.25 C 41.472656 195.320312 41.097656 194.761719 39.984375 194.761719 Z M 47.042969 194.761719 C 45.925781 194.761719 45.558594 195.320312 45.558594 196.25 C 45.558594 197.179688 45.925781 197.734375 47.042969 197.734375 C 47.972656 197.734375 48.527344 197.179688 48.527344 196.25 C 48.527344 195.320312 47.972656 194.761719 47.042969 194.761719 Z M 53.917969 194.761719 C 52.988281 194.761719 52.429688 195.320312 52.429688 196.25 C 52.429688 197.179688 52.988281 197.734375 53.917969 197.734375 C 54.84375 197.734375 55.402344 197.179688 55.402344 196.25 C 55.402344 195.320312 54.84375 194.761719 53.917969 194.761719 Z M 60.976562 194.761719 C 59.859375 194.761719 59.492188 195.320312 59.492188 196.25 C 59.492188 197.179688 59.859375 197.734375 60.976562 197.734375 C 61.90625 197.734375 62.277344 197.179688 62.277344 196.25 C 62.277344 195.320312 61.90625 194.761719 60.976562 194.761719 Z M 69.339844 196.25 C 69.339844 195.320312 68.78125 194.761719 67.851562 194.761719 C 66.921875 194.761719 66.363281 195.320312 66.363281 196.25 C 66.363281 197.179688 66.921875 197.734375 67.851562 197.734375 C 68.78125 197.734375 69.339844 197.179688 69.339844 196.25 Z M 74.722656 194.761719 C 73.796875 194.761719 73.425781 195.320312 73.425781 196.25 C 73.425781 197.179688 73.792969 197.734375 74.722656 197.734375 C 75.839844 197.734375 76.210938 197.179688 76.210938 196.25 C 76.210938 195.320312 75.839844 194.761719 74.722656 194.761719 Z M 81.785156 194.761719 C 80.855469 194.761719 80.296875 195.320312 80.296875 196.25 C 80.296875 197.179688 80.855469 197.734375 81.785156 197.734375 C 82.714844 197.734375 83.269531 197.179688 83.269531 196.25 C 83.269531 195.320312 82.714844 194.761719 81.785156 194.761719 Z M 88.660156 194.761719 C 87.730469 194.761719 87.359375 195.320312 87.359375 196.25 C 87.359375 197.179688 87.730469 197.734375 88.660156 197.734375 C 89.777344 197.734375 90.148438 197.179688 90.148438 196.25 C 90.148438 195.320312 89.773438 194.761719 88.660156 194.761719 Z M 95.71875 194.761719 C 94.605469 194.761719 94.234375 195.320312 94.234375 196.25 C 94.234375 197.179688 94.605469 197.734375 95.71875 197.734375 C 96.648438 197.734375 97.207031 197.179688 97.207031 196.25 C 97.207031 195.320312 96.648438 194.761719 95.71875 194.761719 Z M 47.042969 139.027344 C 45.925781 139.027344 45.558594 139.582031 45.558594 140.511719 C 45.558594 141.628906 45.925781 142 47.042969 142 C 47.972656 142 48.527344 141.628906 48.527344 140.511719 C 48.527344 139.582031 47.972656 139.027344 47.042969 139.027344 Z M 53.917969 139.027344 C 52.988281 139.027344 52.429688 139.582031 52.429688 140.511719 C 52.429688 141.628906 52.988281 142 53.917969 142 C 54.84375 142 55.402344 141.628906 55.402344 140.511719 C 55.402344 139.582031 54.84375 139.027344 53.917969 139.027344 Z M 60.976562 139.027344 C 59.859375 139.027344 59.492188 139.582031 59.492188 140.511719 C 59.492188 141.628906 59.859375 142 60.976562 142 C 61.90625 142 62.277344 141.628906 62.277344 140.511719 C 62.277344 139.582031 61.90625 139.027344 60.976562 139.027344 Z M 69.339844 140.511719 C 69.339844 139.582031 68.78125 139.023438 67.851562 139.023438 C 66.921875 139.023438 66.363281 139.582031 66.363281 140.511719 C 66.363281 141.625 66.921875 141.996094 67.851562 141.996094 C 68.78125 141.996094 69.339844 141.625 69.339844 140.511719 Z M 74.722656 139.027344 C 73.796875 139.027344 73.425781 139.582031 73.425781 140.511719 C 73.425781 141.628906 73.792969 142 74.722656 142 C 75.839844 142 76.210938 141.628906 76.210938 140.511719 C 76.210938 139.582031 75.839844 139.027344 74.722656 139.027344 Z M 81.785156 139.027344 C 80.855469 139.027344 80.296875 139.582031 80.296875 140.511719 C 80.296875 141.628906 80.855469 142 81.785156 142 C 82.714844 142 83.269531 141.628906 83.269531 140.511719 C 83.269531 139.582031 82.714844 139.027344 81.785156 139.027344 Z M 88.660156 139.027344 C 87.730469 139.027344 87.359375 139.582031 87.359375 140.511719 C 87.359375 141.628906 87.730469 142 88.660156 142 C 89.777344 142 90.148438 141.628906 90.148438 140.511719 C 90.144531 139.582031 89.773438 139.027344 88.660156 139.027344 Z M 95.71875 139.027344 C 94.605469 139.027344 94.234375 139.582031 94.234375 140.511719 C 94.234375 141.628906 94.605469 142 95.71875 142 C 96.648438 142 97.207031 141.628906 97.207031 140.511719 C 97.207031 139.582031 96.648438 139.027344 95.71875 139.027344 Z M 47.042969 145.527344 C 45.742188 145.527344 45 146.269531 45 147.570312 C 45 148.6875 45.742188 149.429688 47.042969 149.429688 C 48.15625 149.429688 48.902344 148.6875 48.902344 147.570312 C 48.902344 146.269531 48.15625 145.527344 47.042969 145.527344 Z M 53.917969 144.972656 C 52.246094 144.972656 51.5 145.898438 51.5 147.570312 C 51.5 149.246094 52.246094 149.988281 53.917969 149.988281 C 55.589844 149.988281 56.332031 149.246094 56.332031 147.570312 C 56.332031 145.898438 55.589844 144.972656 53.917969 144.972656 Z M 60.976562 144.972656 C 59.304688 144.972656 58.375 145.898438 58.375 147.570312 C 58.375 149.246094 59.304688 149.988281 60.976562 149.988281 C 62.464844 149.988281 63.390625 149.246094 63.390625 147.570312 C 63.390625 145.898438 62.464844 144.972656 60.976562 144.972656 Z M 70.265625 147.570312 C 70.265625 145.902344 69.523438 144.972656 67.851562 144.972656 C 66.179688 144.972656 65.4375 145.898438 65.4375 147.570312 C 65.4375 149.246094 66.179688 149.988281 67.851562 149.988281 C 69.523438 149.988281 70.265625 149.246094 70.265625 147.570312 Z M 74.722656 144.972656 C 73.238281 144.972656 72.308594 145.898438 72.308594 147.570312 C 72.308594 149.246094 73.238281 149.988281 74.722656 149.988281 C 76.398438 149.988281 77.324219 149.246094 77.324219 147.570312 C 77.328125 145.898438 76.398438 144.972656 74.722656 144.972656 Z M 81.785156 144.972656 C 80.113281 144.972656 79.367188 145.898438 79.367188 147.570312 C 79.367188 149.246094 80.113281 149.988281 81.785156 149.988281 C 83.457031 149.988281 84.199219 149.246094 84.199219 147.570312 C 84.199219 145.898438 83.457031 144.972656 81.785156 144.972656 Z M 53.917969 186.773438 C 52.246094 186.773438 51.5 187.515625 51.5 189.1875 C 51.5 190.859375 52.246094 191.785156 53.917969 191.785156 C 55.589844 191.785156 56.332031 190.859375 56.332031 189.1875 C 56.332031 187.515625 55.589844 186.773438 53.917969 186.773438 Z M 60.976562 186.773438 C 59.304688 186.773438 58.375 187.515625 58.375 189.1875 C 58.375 190.859375 59.304688 191.785156 60.976562 191.785156 C 62.464844 191.785156 63.390625 190.859375 63.390625 189.1875 C 63.390625 187.515625 62.464844 186.773438 60.976562 186.773438 Z M 70.265625 189.1875 C 70.265625 187.515625 69.523438 186.773438 67.851562 186.773438 C 66.179688 186.773438 65.4375 187.515625 65.4375 189.1875 C 65.4375 190.859375 66.179688 191.785156 67.851562 191.785156 C 69.523438 191.785156 70.265625 190.859375 70.265625 189.1875 Z M 74.722656 186.773438 C 73.238281 186.773438 72.308594 187.515625 72.308594 189.1875 C 72.308594 190.859375 73.238281 191.785156 74.722656 191.785156 C 76.398438 191.785156 77.324219 190.859375 77.324219 189.1875 C 77.324219 187.515625 76.398438 186.773438 74.722656 186.773438 Z M 81.785156 186.773438 C 80.113281 186.773438 79.367188 187.515625 79.367188 189.1875 C 79.367188 190.859375 80.113281 191.785156 81.785156 191.785156 C 83.457031 191.785156 84.199219 190.859375 84.199219 189.1875 C 84.199219 187.515625 83.457031 186.773438 81.785156 186.773438 Z M 95.71875 146.269531 C 94.789062 146.269531 94.421875 146.640625 94.421875 147.570312 C 94.421875 148.316406 94.789062 148.871094 95.71875 148.871094 C 95.894531 148.875 96.0625 148.847656 96.222656 148.78125 C 96.382812 148.71875 96.527344 148.625 96.648438 148.5 C 96.773438 148.378906 96.867188 148.234375 96.929688 148.074219 C 96.996094 147.914062 97.023438 147.746094 97.019531 147.570312 C 97.019531 146.644531 96.460938 146.269531 95.71875 146.269531 Z M 88.660156 146.269531 C 87.917969 146.269531 87.546875 146.640625 87.546875 147.570312 C 87.546875 148.316406 87.917969 148.871094 88.660156 148.871094 C 89.589844 148.871094 89.960938 148.316406 89.960938 147.570312 C 89.960938 146.644531 89.589844 146.269531 88.660156 146.269531 Z M 47.042969 152.589844 C 45.742188 152.589844 45 153.144531 45 154.445312 C 45 155.746094 45.742188 156.300781 47.042969 156.300781 C 48.15625 156.300781 48.902344 155.746094 48.902344 154.445312 C 48.902344 153.144531 48.15625 152.589844 47.042969 152.589844 Z M 53.917969 151.84375 C 52.058594 151.84375 51.316406 152.773438 51.316406 154.445312 C 51.316406 156.300781 52.058594 157.046875 53.917969 157.046875 C 55.773438 157.046875 56.519531 156.300781 56.519531 154.445312 C 56.519531 152.773438 55.773438 151.84375 53.917969 151.84375 Z M 53.917969 158.90625 C 52.058594 158.90625 51.316406 159.648438 51.316406 161.507812 C 51.316406 163.179688 52.058594 164.109375 53.917969 164.109375 C 55.773438 164.109375 56.519531 163.179688 56.519531 161.507812 C 56.519531 159.648438 55.773438 158.90625 53.917969 158.90625 Z M 53.917969 170.980469 C 55.773438 170.980469 56.519531 170.238281 56.519531 168.378906 C 56.519531 166.707031 55.773438 165.777344 53.917969 165.777344 C 52.058594 165.777344 51.316406 166.707031 51.316406 168.378906 C 51.316406 170.238281 52.058594 170.980469 53.917969 170.980469 Z M 60.976562 170.980469 C 62.648438 170.980469 63.578125 170.238281 63.578125 168.378906 C 63.578125 166.707031 62.648438 165.777344 60.976562 165.777344 C 59.117188 165.777344 58.375 166.707031 58.375 168.378906 C 58.375 170.238281 59.117188 170.980469 60.976562 170.980469 Z M 53.917969 172.839844 C 52.058594 172.839844 51.316406 173.582031 51.316406 175.441406 C 51.316406 177.109375 52.058594 178.039062 53.917969 178.039062 C 55.773438 178.039062 56.519531 177.109375 56.519531 175.441406 C 56.519531 173.582031 55.773438 172.839844 53.917969 172.839844 Z M 60.976562 152.214844 C 59.304688 152.214844 58.5625 152.960938 58.5625 154.449219 C 58.5625 155.933594 59.304688 156.675781 60.976562 156.675781 C 62.464844 156.675781 63.207031 155.933594 63.207031 154.449219 C 63.207031 152.960938 62.464844 152.214844 60.976562 152.214844 Z M 70.082031 154.445312 C 70.082031 152.960938 69.339844 152.214844 67.851562 152.214844 C 66.363281 152.214844 65.621094 152.960938 65.621094 154.445312 C 65.621094 155.933594 66.363281 156.675781 67.851562 156.675781 C 69.339844 156.675781 70.082031 155.933594 70.082031 154.445312 Z M 74.722656 152.214844 C 73.238281 152.214844 72.496094 152.960938 72.496094 154.449219 C 72.496094 155.933594 73.238281 156.675781 74.722656 156.675781 C 76.398438 156.675781 77.140625 155.933594 77.140625 154.449219 C 77.140625 152.960938 76.398438 152.214844 74.722656 152.214844 Z M 60.976562 180.085938 C 59.304688 180.085938 58.5625 180.828125 58.5625 182.316406 C 58.5625 183.800781 59.304688 184.542969 60.976562 184.542969 C 62.464844 184.542969 63.207031 183.800781 63.207031 182.316406 C 63.207031 180.828125 62.464844 180.085938 60.976562 180.085938 Z M 70.082031 182.316406 C 70.082031 180.828125 69.339844 180.085938 67.851562 180.085938 C 66.363281 180.085938 65.621094 180.828125 65.621094 182.316406 C 65.621094 183.800781 66.363281 184.542969 67.851562 184.542969 C 69.339844 184.542969 70.082031 183.800781 70.082031 182.316406 Z M 74.722656 180.085938 C 73.238281 180.085938 72.496094 180.828125 72.496094 182.316406 C 72.496094 183.800781 73.238281 184.542969 74.722656 184.542969 C 76.398438 184.542969 77.140625 183.800781 77.140625 182.316406 C 77.140625 180.828125 76.398438 180.085938 74.722656 180.085938 Z M 81.785156 153.144531 C 80.855469 153.144531 80.484375 153.699219 80.484375 154.445312 C 80.484375 155.375 80.855469 155.746094 81.785156 155.746094 C 82.527344 155.746094 83.085938 155.375 83.085938 154.445312 C 83.089844 154.273438 83.058594 154.105469 82.996094 153.941406 C 82.929688 153.78125 82.835938 153.640625 82.714844 153.515625 C 82.589844 153.394531 82.449219 153.300781 82.289062 153.234375 C 82.125 153.171875 81.957031 153.140625 81.785156 153.144531 Z M 95.71875 153.144531 C 94.789062 153.144531 94.421875 153.699219 94.421875 154.445312 C 94.421875 155.375 94.789062 155.746094 95.71875 155.746094 C 96.464844 155.746094 97.019531 155.375 97.019531 154.445312 C 97.023438 154.273438 96.996094 154.105469 96.929688 153.945312 C 96.867188 153.78125 96.773438 153.640625 96.648438 153.515625 C 96.527344 153.394531 96.382812 153.300781 96.222656 153.234375 C 96.0625 153.171875 95.894531 153.140625 95.71875 153.144531 Z M 47.042969 159.460938 C 45.742188 159.460938 45 160.207031 45 161.507812 C 45 162.621094 45.742188 163.363281 47.042969 163.363281 C 48.15625 163.363281 48.902344 162.621094 48.902344 161.507812 C 48.902344 160.207031 48.15625 159.460938 47.042969 159.460938 Z M 60.976562 158.90625 C 59.117188 158.90625 58.375 159.648438 58.375 161.507812 C 58.375 163.179688 59.121094 163.921875 60.976562 163.921875 C 62.648438 163.921875 63.390625 163.179688 63.390625 161.507812 C 63.390625 159.648438 62.648438 158.90625 60.976562 158.90625 Z M 74.722656 160.207031 C 73.984375 160.207031 73.613281 160.578125 73.613281 161.507812 C 73.613281 162.25 73.984375 162.621094 74.722656 162.621094 C 75.652344 162.621094 76.023438 162.25 76.023438 161.507812 C 76.023438 160.578125 75.652344 160.207031 74.722656 160.207031 Z M 81.785156 160.207031 C 80.855469 160.207031 80.484375 160.578125 80.484375 161.507812 C 80.484375 162.25 80.855469 162.621094 81.785156 162.621094 C 82.527344 162.621094 83.085938 162.25 83.085938 161.507812 C 83.085938 160.578125 82.527344 160.207031 81.785156 160.207031 Z M 95.71875 160.207031 C 94.789062 160.207031 94.421875 160.578125 94.421875 161.507812 C 94.421875 162.25 94.789062 162.621094 95.71875 162.621094 C 96.464844 162.621094 97.019531 162.25 97.019531 161.507812 C 97.019531 160.578125 96.460938 160.207031 95.71875 160.207031 Z M 47.042969 170.238281 C 48.15625 170.238281 48.902344 169.679688 48.902344 168.378906 C 48.902344 167.265625 48.15625 166.519531 47.042969 166.519531 C 45.742188 166.519531 45 167.265625 45 168.378906 C 45 169.679688 45.742188 170.238281 47.042969 170.238281 Z M 67.851562 169.679688 C 68.78125 169.679688 68.964844 169.308594 68.964844 168.378906 C 68.964844 167.632812 68.78125 167.265625 67.851562 167.265625 C 67.109375 167.265625 66.550781 167.636719 66.550781 168.378906 C 66.550781 169.308594 67.109375 169.679688 67.851562 169.679688 Z M 74.722656 169.679688 C 75.652344 169.679688 76.023438 169.308594 76.023438 168.378906 C 76.023438 167.632812 75.652344 167.265625 74.722656 167.265625 C 73.984375 167.265625 73.613281 167.636719 73.613281 168.378906 C 73.613281 169.308594 73.984375 169.679688 74.722656 169.679688 Z M 81.785156 169.679688 C 82.527344 169.679688 83.085938 169.308594 83.085938 168.378906 C 83.085938 167.632812 82.527344 167.265625 81.785156 167.265625 C 80.855469 167.265625 80.484375 167.636719 80.484375 168.378906 C 80.484375 169.308594 80.855469 169.679688 81.785156 169.679688 Z M 95.71875 169.679688 C 96.464844 169.679688 97.019531 169.308594 97.019531 168.378906 C 97.019531 167.632812 96.460938 167.265625 95.71875 167.265625 C 94.789062 167.265625 94.421875 167.636719 94.421875 168.378906 C 94.417969 169.308594 94.789062 169.679688 95.71875 169.679688 Z M 47.042969 173.394531 C 45.742188 173.394531 45 174.140625 45 175.441406 C 45 176.554688 45.742188 177.296875 47.042969 177.296875 C 48.15625 177.296875 48.902344 176.554688 48.902344 175.441406 C 48.902344 174.140625 48.15625 173.394531 47.042969 173.394531 Z M 60.976562 172.839844 C 59.117188 172.839844 58.375 173.582031 58.375 175.441406 C 58.375 177.109375 59.121094 177.855469 60.976562 177.855469 C 62.648438 177.855469 63.390625 177.109375 63.390625 175.441406 C 63.390625 173.582031 62.648438 172.839844 60.976562 172.839844 Z M 69.894531 175.441406 C 69.894531 173.953125 69.339844 173.210938 67.851562 173.210938 C 66.363281 173.210938 65.621094 173.953125 65.621094 175.441406 C 65.621094 176.742188 66.363281 177.484375 67.851562 177.484375 C 69.339844 177.484375 69.894531 176.738281 69.894531 175.441406 Z M 69.894531 161.507812 C 69.894531 160.019531 69.339844 159.277344 67.851562 159.277344 C 66.363281 159.277344 65.621094 160.019531 65.621094 161.507812 C 65.621094 162.808594 66.363281 163.550781 67.851562 163.550781 C 69.339844 163.550781 69.894531 162.808594 69.894531 161.507812 Z M 74.722656 174.140625 C 73.984375 174.140625 73.613281 174.507812 73.613281 175.441406 C 73.613281 176.183594 73.984375 176.554688 74.722656 176.554688 C 75.652344 176.554688 76.023438 176.183594 76.023438 175.441406 C 76.023438 174.507812 75.652344 174.140625 74.722656 174.140625 Z M 81.785156 174.140625 C 80.855469 174.140625 80.484375 174.507812 80.484375 175.441406 C 80.484375 176.183594 80.855469 176.554688 81.785156 176.554688 C 82.527344 176.554688 83.085938 176.183594 83.085938 175.441406 C 83.085938 174.507812 82.527344 174.140625 81.785156 174.140625 Z M 95.71875 174.140625 C 94.789062 174.140625 94.421875 174.507812 94.421875 175.441406 C 94.421875 176.183594 94.789062 176.554688 95.71875 176.554688 C 96.464844 176.554688 97.019531 176.183594 97.019531 175.441406 C 97.019531 174.507812 96.460938 174.140625 95.71875 174.140625 Z M 47.042969 180.453125 C 45.742188 180.453125 45 181.015625 45 182.316406 C 45 183.613281 45.742188 184.175781 47.042969 184.175781 C 48.15625 184.175781 48.902344 183.613281 48.902344 182.316406 C 48.902344 181.015625 48.15625 180.453125 47.042969 180.453125 Z M 53.917969 179.898438 C 52.246094 179.898438 51.5 180.640625 51.5 182.316406 C 51.5 183.988281 52.246094 184.730469 53.917969 184.730469 C 55.589844 184.730469 56.332031 183.988281 56.332031 182.316406 C 56.332031 180.640625 55.589844 179.898438 53.917969 179.898438 Z M 81.785156 181.015625 C 80.855469 181.015625 80.484375 181.570312 80.484375 182.316406 C 80.484375 183.246094 80.855469 183.613281 81.785156 183.613281 C 82.527344 183.613281 83.085938 183.246094 83.085938 182.316406 C 83.089844 182.140625 83.058594 181.972656 82.996094 181.8125 C 82.929688 181.652344 82.835938 181.507812 82.714844 181.386719 C 82.589844 181.261719 82.449219 181.167969 82.289062 181.105469 C 82.125 181.039062 81.957031 181.007812 81.785156 181.015625 Z M 95.71875 181.015625 C 94.789062 181.015625 94.421875 181.570312 94.421875 182.316406 C 94.421875 183.246094 94.789062 183.613281 95.71875 183.613281 C 96.464844 183.613281 97.019531 183.246094 97.019531 182.316406 C 97.023438 182.140625 96.996094 181.972656 96.929688 181.8125 C 96.867188 181.652344 96.773438 181.507812 96.648438 181.386719 C 96.527344 181.261719 96.382812 181.167969 96.222656 181.105469 C 96.0625 181.039062 95.894531 181.007812 95.71875 181.015625 Z M 47.042969 187.328125 C 45.742188 187.328125 45 188.074219 45 189.1875 C 45 190.488281 45.742188 191.230469 47.042969 191.230469 C 48.15625 191.230469 48.902344 190.488281 48.902344 189.1875 C 48.902344 188.074219 48.15625 187.328125 47.042969 187.328125 Z M 95.71875 188.074219 C 94.789062 188.074219 94.421875 188.445312 94.421875 189.1875 C 94.421875 190.117188 94.789062 190.488281 95.71875 190.488281 C 96.464844 190.488281 97.019531 190.117188 97.019531 189.1875 C 97.019531 188.445312 96.460938 188.074219 95.71875 188.074219 Z M 88.660156 188.074219 C 87.917969 188.074219 87.546875 188.445312 87.546875 189.1875 C 87.546875 190.117188 87.917969 190.488281 88.660156 190.488281 C 89.589844 190.488281 89.960938 190.117188 89.960938 189.1875 C 89.960938 188.445312 89.589844 188.074219 88.660156 188.074219 Z M 88.660156 153.144531 C 87.917969 153.144531 87.546875 153.699219 87.546875 154.445312 C 87.546875 155.375 87.917969 155.746094 88.660156 155.746094 C 89.589844 155.746094 89.960938 155.375 89.960938 154.445312 C 89.960938 153.699219 89.589844 153.144531 88.660156 153.144531 Z M 88.660156 160.207031 C 87.917969 160.207031 87.546875 160.578125 87.546875 161.507812 C 87.546875 162.25 87.917969 162.621094 88.660156 162.621094 C 89.589844 162.621094 89.960938 162.25 89.960938 161.507812 C 89.960938 160.578125 89.589844 160.207031 88.660156 160.207031 Z M 88.660156 169.679688 C 89.589844 169.679688 89.960938 169.308594 89.960938 168.378906 C 89.960938 167.632812 89.589844 167.265625 88.660156 167.265625 C 87.917969 167.265625 87.546875 167.636719 87.546875 168.378906 C 87.546875 169.308594 87.917969 169.679688 88.660156 169.679688 Z M 88.660156 174.140625 C 87.917969 174.140625 87.546875 174.507812 87.546875 175.441406 C 87.546875 176.183594 87.917969 176.554688 88.660156 176.554688 C 89.589844 176.554688 89.960938 176.183594 89.960938 175.441406 C 89.960938 174.507812 89.589844 174.140625 88.660156 174.140625 Z M 88.660156 181.015625 C 87.917969 181.015625 87.546875 181.570312 87.546875 182.316406 C 87.546875 183.246094 87.917969 183.613281 88.660156 183.613281 C 89.589844 183.613281 89.960938 183.246094 89.960938 182.316406 C 89.960938 181.570312 89.589844 181.015625 88.660156 181.015625 Z M 88.660156 181.015625 " fill-opacity="1" fill-rule="evenodd"/></svg>