<svg xmlns="http://www.w3.org/2000/svg" xmlns:xlink="http://www.w3.org/1999/xlink" width="500" zoomAndPan="magnify" viewBox="0 0 375 374.999991" height="500" preserveAspectRatio="xMidYMid meet" version="1.0"><metadata><ContainsAiGeneratedContent>Yes</ContainsAiGeneratedContent></metadata><defs><clipPath id="39418a5701"><path d="M 52.695312 174 L 321.945312 174 L 321.945312 213 L 52.695312 213 Z M 52.695312 174 " clip-rule="nonzero"/></clipPath></defs><g clip-path="url(#39418a5701)"><path fill="#000000" d="M 100.035156 174.246094 L 91.433594 185.945312 L 138.328125 185.945312 C 140.683594 185.945312 140.660156 186.820312 139.503906 188.390625 C 138.328125 189.984375 136.363281 192.765625 135.175781 194.382812 C 134.570312 195.203125 133.445312 196.703125 137.09375 196.703125 L 156.277344 196.703125 L 161.941406 188.964844 C 165.464844 184.183594 162.257812 174.246094 149.65625 174.246094 Z M 180.855469 174.246094 L 164.308594 196.703125 L 224.777344 196.703125 L 241.304688 174.246094 L 216.601562 174.246094 L 207.140625 187.101562 L 196.09375 187.101562 L 205.582031 174.246094 Z M 249.347656 174.246094 L 232.8125 196.703125 L 258.996094 196.703125 L 275.507812 174.246094 Z M 105.242188 188.828125 L 87.964844 212.320312 L 130.082031 212.320312 C 143.992188 212.320312 151.753906 202.851562 154.144531 199.578125 L 125.425781 199.578125 C 121.769531 199.578125 122.890625 198.085938 123.496094 197.253906 C 124.695312 195.648438 126.671875 192.902344 127.847656 191.308594 C 129.015625 189.738281 129.046875 188.839844 126.671875 188.839844 L 105.242188 188.839844 Z M 52.695312 199.589844 L 52.695312 202.304688 L 90.816406 202.304688 L 92.789062 199.589844 Z M 162.210938 199.589844 L 152.832031 212.332031 L 177.546875 212.332031 L 186.925781 199.589844 Z M 197.941406 199.589844 L 188.5625 212.332031 L 213.277344 212.332031 L 222.65625 199.589844 Z M 230.679688 199.589844 C 230.679688 199.589844 228.894531 202.054688 228.007812 203.246094 C 224.914062 207.441406 227.640625 212.332031 237.769531 212.332031 L 277.460938 212.332031 L 286.816406 199.589844 Z M 291.351562 199.589844 L 289.363281 202.304688 L 321.945312 202.304688 L 321.945312 199.589844 Z M 52.695312 204.613281 L 52.695312 207.304688 L 87.113281 207.304688 L 89.109375 204.613281 Z M 287.648438 204.613281 L 285.683594 207.304688 L 321.945312 207.304688 L 321.945312 204.613281 Z M 52.695312 209.628906 L 52.695312 212.320312 L 83.433594 212.320312 L 85.40625 209.628906 Z M 283.96875 209.628906 L 281.984375 212.320312 L 321.945312 212.320312 L 321.945312 209.628906 Z M 283.96875 209.628906 " fill-opacity="1" fill-rule="nonzero"/></g></svg>