<svg xmlns="http://www.w3.org/2000/svg" xmlns:xlink="http://www.w3.org/1999/xlink" width="500" zoomAndPan="magnify" viewBox="0 0 375 374.999991" height="500" preserveAspectRatio="xMidYMid meet" version="1.0"><metadata><ContainsAiGeneratedContent>Yes</ContainsAiGeneratedContent></metadata><defs><clipPath id="7f1565b7f7"><path d="M 72.089844 166 L 120 166 L 120 234 L 72.089844 234 Z M 72.089844 166 " clip-rule="nonzero"/></clipPath><clipPath id="3c640be0f1"><path d="M 201 167 L 249 167 L 249 235.058594 L 201 235.058594 Z M 201 167 " clip-rule="nonzero"/></clipPath><clipPath id="8b06550de6"><path d="M 124 139.808594 L 141 139.808594 L 141 160 L 124 160 Z M 124 139.808594 " clip-rule="nonzero"/></clipPath></defs><g clip-path="url(#7f1565b7f7)"><path fill="#000000" d="M 119.546875 190.804688 C 119.546875 204.804688 110.382812 214.625 97.230469 214.617188 C 91.1875 214.617188 85.441406 211.699219 82.714844 207.324219 L 82.710938 233.863281 L 72.089844 233.863281 L 72.105469 168.148438 L 82.722656 168.148438 L 82.722656 174.273438 C 85.453125 169.898438 91.496094 166.984375 97.921875 166.984375 C 110.878906 166.984375 119.550781 176.515625 119.546875 190.804688 Z M 108.925781 190.804688 C 108.925781 182.347656 103.472656 176.417969 95.679688 176.414062 C 87.6875 176.414062 82.234375 182.246094 82.234375 190.800781 C 82.234375 199.355469 87.6875 205.1875 95.675781 205.191406 C 103.464844 205.1875 108.925781 199.261719 108.925781 190.804688 Z M 108.925781 190.804688 " fill-opacity="1" fill-rule="nonzero"/></g><path fill="#000000" d="M 192.929688 145.425781 L 192.914062 213.472656 L 182.296875 213.472656 L 182.296875 207.347656 C 179.566406 211.914062 173.332031 214.636719 167.78125 214.632812 C 153.164062 214.632812 145.472656 204.128906 145.472656 190.8125 C 145.476562 177.5 153.953125 166.996094 168.082031 167.003906 C 174.121094 167.003906 179.578125 169.726562 182.304688 174.296875 L 182.3125 145.425781 Z M 182.789062 190.820312 C 182.789062 183.042969 178.410156 176.433594 169.347656 176.429688 C 161.066406 176.429688 156.097656 182.550781 156.09375 190.8125 C 156.09375 199.078125 161.058594 205.203125 169.339844 205.203125 C 178.402344 205.203125 182.789062 198.597656 182.789062 190.820312 Z M 182.789062 190.820312 " fill-opacity="1" fill-rule="nonzero"/><g clip-path="url(#3c640be0f1)"><path fill="#000000" d="M 248.707031 168.183594 L 248.695312 211.539062 C 248.695312 220.484375 245.867188 227.1875 240.507812 231.078125 C 236.707031 233.894531 232.320312 235.066406 225.792969 235.058594 C 219.753906 235.058594 214.882812 233.792969 210.695312 230.972656 C 208.597656 229.632812 206.851562 227.816406 205.597656 225.667969 C 204.34375 223.519531 203.621094 221.105469 203.488281 218.625 L 214.59375 218.625 C 215.46875 223.292969 218.390625 226.308594 225.695312 226.308594 C 234.363281 226.308594 238.070312 222.519531 238.074219 212.3125 L 238.074219 207.351562 C 235.34375 211.917969 229.109375 214.640625 223.554688 214.640625 C 209.429688 214.640625 201.25 204.136719 201.25 190.820312 C 201.253906 177.503906 210.21875 167 223.859375 167.007812 C 229.898438 167.007812 235.351562 169.730469 238.082031 174.300781 L 238.082031 168.175781 Z M 238.570312 190.832031 C 238.570312 183.054688 233.792969 176.441406 225.128906 176.441406 C 217.140625 176.441406 211.878906 182.5625 211.875 190.824219 C 211.871094 199.085938 217.132812 205.210938 225.121094 205.214844 C 233.792969 205.21875 238.566406 198.609375 238.570312 190.832031 Z M 238.570312 190.832031 " fill-opacity="1" fill-rule="nonzero"/></g><path fill="#000000" d="M 301.261719 194.34375 L 267.554688 194.335938 C 267.847656 201.53125 272.523438 205.417969 280.214844 205.421875 C 285.476562 205.421875 288.59375 203.769531 290.347656 200.273438 L 301.0625 200.273438 C 299.699219 208.730469 291.121094 214.65625 280.210938 214.65625 C 265.886719 214.65625 257.027344 205.511719 257.03125 190.835938 C 257.03125 176.351562 266 167.015625 279.832031 167.023438 C 292.789062 167.023438 301.554688 175.777344 301.550781 188.515625 C 301.558594 190.554688 301.460938 191.621094 301.261719 194.34375 Z M 291.132812 186.273438 C 291.039062 179.277344 286.945312 175.386719 279.640625 175.382812 C 272.140625 175.382812 267.65625 179.855469 267.558594 186.269531 Z M 291.132812 186.273438 " fill-opacity="1" fill-rule="nonzero"/><g clip-path="url(#8b06550de6)"><path fill="#492897" d="M 138.285156 142.191406 C 137.574219 141.457031 136.726562 140.867188 135.785156 140.457031 C 134.847656 140.050781 133.835938 139.832031 132.8125 139.8125 C 131.789062 139.792969 130.769531 139.976562 129.816406 140.351562 C 128.863281 140.726562 127.992188 141.28125 127.253906 141.992188 C 127.195312 142.050781 127.136719 142.109375 127.078125 142.167969 C 125.585938 143.699219 124.75 145.753906 124.742188 147.890625 C 124.738281 150.027344 125.570312 152.082031 127.054688 153.617188 L 132.199219 158.867188 C 132.257812 158.929688 132.328125 158.980469 132.40625 159.011719 C 132.484375 159.042969 132.570312 159.0625 132.65625 159.058594 C 132.742188 159.0625 132.828125 159.046875 132.90625 159.015625 C 132.988281 158.980469 133.058594 158.933594 133.117188 158.867188 L 138.261719 153.621094 C 139.761719 152.097656 140.605469 150.046875 140.609375 147.910156 C 140.613281 145.773438 139.78125 143.722656 138.285156 142.191406 Z M 138.285156 142.191406 " fill-opacity="1" fill-rule="nonzero"/></g><path fill="#000000" d="M 139.152344 203.910156 C 138.695312 203.785156 138.277344 203.550781 137.933594 203.230469 C 137.585938 202.910156 137.328125 202.507812 137.171875 202.0625 L 137.171875 175.792969 C 137.171875 167.648438 129.105469 166.988281 129.105469 166.988281 L 122.441406 166.988281 C 124.949219 170.5 126.003906 176.539062 126.003906 176.539062 C 126.460938 176.664062 126.878906 176.898438 127.222656 177.21875 C 127.566406 177.542969 127.828125 177.941406 127.984375 178.386719 L 127.984375 204.65625 C 127.984375 212.800781 136.050781 213.460938 136.050781 213.460938 L 142.714844 213.460938 C 140.207031 209.949219 139.152344 203.910156 139.152344 203.910156 Z M 139.152344 203.910156 " fill-opacity="1" fill-rule="nonzero"/></svg>